<?xml version="1.0" standalone="no"?>
<!DOCTYPE svg PUBLIC "-//W3C//DTD SVG 20010904//EN"
 "http://www.w3.org/TR/2001/REC-SVG-20010904/DTD/svg10.dtd">
<svg version="1.0" xmlns="http://www.w3.org/2000/svg"
 width="500.000000pt" height="500.000000pt" viewBox="0 0 500.000000 500.000000"
 preserveAspectRatio="xMidYMid meet">
<metadata>
Created by potrace 1.11, written by Peter Selinger 2001-2013
</metadata>
<g transform="translate(0.000000,500.000000) scale(0.100000,-0.100000)"
fill="#000000" stroke="none">
<path d="M1510 3722 c0 -15 -9 -77 -19 -137 -40 -230 -84 -515 -80 -519 2 -3
47 3 99 11 112 19 141 14 188 -33 19 -19 36 -33 37 -32 6 10 46 268 51 339 9
110 -11 160 -80 206 -31 21 -55 48 -74 84 -17 32 -44 65 -67 81 -50 34 -55 34
-55 0z"/>
<path d="M3040 3013 c0 -6 7 -30 15 -53 18 -50 19 -162 4 -246 -6 -32 -19
-111 -29 -174 -10 -63 -35 -209 -54 -324 -43 -251 -44 -276 -12 -312 71 -83
250 43 329 231 17 42 38 149 58 302 20 158 -12 264 -114 368 -33 33 -69 76
-82 95 -28 43 -115 128 -115 113z"/>
<path d="M1726 2869 c-20 -58 -69 -111 -124 -134 -18 -8 -76 -21 -130 -30 -53
-9 -105 -18 -114 -21 -18 -5 -25 -32 -58 -234 -11 -69 -36 -217 -55 -330 -61
-363 -65 -387 -56 -418 24 -83 80 -118 175 -108 34 4 79 16 102 27 l40 19 13
83 c7 45 25 159 41 252 16 94 36 218 46 277 16 102 18 107 43 112 14 3 51 10
82 16 l56 11 31 162 c49 254 54 285 43 304 -16 31 -47 54 -82 59 -33 6 -34 5
-53 -47z"/>
<path d="M2500 2881 c-80 -25 -137 -80 -187 -181 -37 -73 -63 -206 -193 -995
-43 -260 -77 -327 -197 -389 -54 -27 -141 -31 -186 -8 l-38 20 -57 -28 c-134
-67 -173 -75 -352 -75 l-165 0 -87 37 -88 36 14 -27 c8 -14 43 -54 78 -88 34
-34 87 -89 117 -123 41 -46 73 -70 135 -100 105 -52 171 -64 326 -57 135 6
183 18 295 72 l72 34 39 -20 c106 -55 280 31 332 166 11 28 25 84 32 125 11
72 55 334 86 510 8 47 14 110 14 140 0 48 18 167 102 655 39 229 35 265 -29
292 -18 7 -34 13 -35 12 -2 0 -14 -4 -28 -8z"/>
<path d="M811 2589 c-54 -10 -54 -11 -47 -46 9 -39 41 -89 65 -102 18 -10 20
-6 32 67 7 42 12 79 12 82 -2 8 -17 8 -62 -1z"/>
<path d="M3772 2427 c-7 -35 -24 -106 -38 -158 -132 -479 -375 -731 -739 -764
-80 -8 -206 14 -267 45 -21 11 -38 17 -38 14 0 -15 41 -67 99 -126 36 -36 81
-84 99 -107 78 -94 203 -146 352 -145 188 1 338 64 475 199 88 86 122 132 184
246 l40 73 -45 39 c-61 53 -85 104 -87 180 -1 78 14 124 63 183 41 50 74 69
152 88 l47 11 -19 43 c-16 35 -29 47 -75 68 -45 21 -55 30 -55 50 0 41 -28 83
-70 104 -60 30 -65 27 -78 -43z"/>
<path d="M4305 1972 c4 -27 1 -61 -10 -101 -14 -50 -27 -69 -70 -110 -61 -58
-112 -75 -201 -68 -58 4 -61 3 -56 -16 4 -18 53 -70 127 -137 9 -8 30 -37 48
-64 84 -128 277 -141 382 -25 46 52 65 100 65 169 0 75 -39 151 -100 198 -25
19 -57 56 -72 83 -15 26 -42 59 -60 72 -60 44 -61 44 -53 -1z"/>
</g>
</svg>
